<?xml version="1.0" encoding="UTF-8" standalone="no"?>
<!-- Generator: Adobe Illustrator 16.0.0, SVG Export Plug-In . SVG Version: 6.00 Build 0)  -->

<svg
   version="1.1"
   id="Capa_1"
   x="0px"
   y="0px"
   width="20"
   height="20"
   viewBox="0 0 20 20"
   xml:space="preserve"
   sodipodi:docname="icon.svg"
   inkscape:version="1.2.1 (9c6d41e, 2022-07-14)"
   xmlns:inkscape="http://www.inkscape.org/namespaces/inkscape"
   xmlns:sodipodi="http://sodipodi.sourceforge.net/DTD/sodipodi-0.dtd"
   xmlns="http://www.w3.org/2000/svg"
   xmlns:svg="http://www.w3.org/2000/svg"><defs
   id="defs39" /><sodipodi:namedview
   id="namedview37"
   pagecolor="#ffffff"
   bordercolor="#000000"
   borderopacity="0.25"
   inkscape:showpageshadow="2"
   inkscape:pageopacity="0.0"
   inkscape:pagecheckerboard="0"
   inkscape:deskcolor="#d1d1d1"
   showgrid="false"
   inkscape:zoom="13.703125"
   inkscape:cx="6.3854048"
   inkscape:cy="11.055872"
   inkscape:window-width="1390"
   inkscape:window-height="1027"
   inkscape:window-x="0"
   inkscape:window-y="25"
   inkscape:window-maximized="0"
   inkscape:current-layer="Capa_1" />
<g
   id="g4"
   style="fill:#ffffff;fill-opacity:1;stroke:#000000;stroke-opacity:1"
   transform="matrix(0.03898635,0,0,0.03898635,0.01949318,0.01949318)">
	<path
   d="M 256,0 C 114.625,0 0,114.625 0,256 0,397.375 114.625,512 256,512 397.375,512 512,397.375 512,256 512,114.625 397.375,0 256,0 Z m 0,480 C 132.5,480 32,379.5 32,256 32,132.5 132.5,32 256,32 379.5,32 480,132.5 480,256 480,379.5 379.5,480 256,480 Z m 79.562,-214.156 c 6.095,10.313 9.156,22.344 9.156,36.125 0,21.156 -6.312,38.781 -18.906,52.875 -12.594,14.125 -30.78,22.438 -54.562,24.938 V 416 h -30.313 v -36.031 c -39.656,-4.062 -64.188,-27.125 -73.656,-69.125 l 46.875,-12.219 c 4.344,26.406 18.719,39.594 43.125,39.594 11.406,0 19.844,-2.812 25.219,-8.469 5.375,-5.657 8.062,-12.469 8.062,-20.469 0,-8.281 -2.688,-14.563 -8.062,-18.813 -5.375,-4.28 -17.344,-9.688 -35.875,-16.25 -16.656,-5.78 -29.688,-11.469 -39.063,-17.155 -9.375,-5.625 -17,-13.531 -22.844,-23.688 -5.844,-10.188 -8.781,-22.063 -8.781,-35.563 0,-17.719 5.25,-33.688 15.688,-47.875 10.438,-14.156 26.875,-22.813 49.313,-25.969 V 96 h 30.313 v 27.969 c 33.875,4.063 55.813,23.219 65.781,57.5 l -41.75,17.125 c -8.156,-23.5 -20.72,-35.25 -37.781,-35.25 -8.563,0 -15.438,2.625 -20.594,7.875 -5.188,5.25 -7.781,11.625 -7.781,19.094 0,7.625 2.5,13.469 7.5,17.563 4.969,4.063 15.688,9.094 32.063,15.125 18,6.563 32.125,12.781 42.344,18.625 10.248,5.843 18.405,13.937 24.529,24.218 z"
   id="path2"
   style="fill:#ffffff;fill-opacity:1;stroke:#000000;stroke-opacity:1" />
</g>
<g
   id="g6"
   style="fill:#ffffff;fill-opacity:1;stroke:#000000;stroke-opacity:1"
   transform="matrix(0.03898635,0,0,0.03898635,-0.48050682,-0.48050682)">
</g>
<g
   id="g8"
   style="fill:#ffffff;fill-opacity:1;stroke:#000000;stroke-opacity:1"
   transform="matrix(0.03898635,0,0,0.03898635,-0.48050682,-0.48050682)">
</g>
<g
   id="g10"
   style="fill:#ffffff;fill-opacity:1;stroke:#000000;stroke-opacity:1"
   transform="matrix(0.03898635,0,0,0.03898635,-0.48050682,-0.48050682)">
</g>
<g
   id="g12"
   style="fill:#ffffff;fill-opacity:1;stroke:#000000;stroke-opacity:1"
   transform="matrix(0.03898635,0,0,0.03898635,-0.48050682,-0.48050682)">
</g>
<g
   id="g14"
   style="fill:#ffffff;fill-opacity:1;stroke:#000000;stroke-opacity:1"
   transform="matrix(0.03898635,0,0,0.03898635,-0.48050682,-0.48050682)">
</g>
<g
   id="g16"
   style="fill:#ffffff;fill-opacity:1;stroke:#000000;stroke-opacity:1"
   transform="matrix(0.03898635,0,0,0.03898635,-0.48050682,-0.48050682)">
</g>
<g
   id="g18"
   style="fill:#ffffff;fill-opacity:1;stroke:#000000;stroke-opacity:1"
   transform="matrix(0.03898635,0,0,0.03898635,-0.48050682,-0.48050682)">
</g>
<g
   id="g20"
   style="fill:#ffffff;fill-opacity:1;stroke:#000000;stroke-opacity:1"
   transform="matrix(0.03898635,0,0,0.03898635,-0.48050682,-0.48050682)">
</g>
<g
   id="g22"
   style="fill:#ffffff;fill-opacity:1;stroke:#000000;stroke-opacity:1"
   transform="matrix(0.03898635,0,0,0.03898635,-0.48050682,-0.48050682)">
</g>
<g
   id="g24"
   style="fill:#ffffff;fill-opacity:1;stroke:#000000;stroke-opacity:1"
   transform="matrix(0.03898635,0,0,0.03898635,-0.48050682,-0.48050682)">
</g>
<g
   id="g26"
   style="fill:#ffffff;fill-opacity:1;stroke:#000000;stroke-opacity:1"
   transform="matrix(0.03898635,0,0,0.03898635,-0.48050682,-0.48050682)">
</g>
<g
   id="g28"
   style="fill:#ffffff;fill-opacity:1;stroke:#000000;stroke-opacity:1"
   transform="matrix(0.03898635,0,0,0.03898635,-0.48050682,-0.48050682)">
</g>
<g
   id="g30"
   style="fill:#ffffff;fill-opacity:1;stroke:#000000;stroke-opacity:1"
   transform="matrix(0.03898635,0,0,0.03898635,-0.48050682,-0.48050682)">
</g>
<g
   id="g32"
   style="fill:#ffffff;fill-opacity:1;stroke:#000000;stroke-opacity:1"
   transform="matrix(0.03898635,0,0,0.03898635,-0.48050682,-0.48050682)">
</g>
<g
   id="g34"
   style="fill:#ffffff;fill-opacity:1;stroke:#000000;stroke-opacity:1"
   transform="matrix(0.03898635,0,0,0.03898635,-0.48050682,-0.48050682)">
</g>
</svg>
